<svg width="16" height="16" viewBox="0 0 16 16" fill="none" xmlns="http://www.w3.org/2000/svg">
<path d="M5.99985 2.00031C6.41469 2.00031 6.74985 2.33546 6.74985 2.75031L6.74985 3.50031L9.74985 3.50031L9.74985 2.75031C9.74985 2.33546 10.085 2.00031 10.4998 2.00031C10.9147 2.00031 11.2498 2.33546 11.2498 2.75031L11.2498 3.50031L12.3748 3.50031C12.9959 3.50031 13.4998 4.00421 13.4998 4.62531L13.4998 5.7503L2.99985 5.7503L2.99985 4.62531C2.99985 4.00421 3.50375 3.50031 4.12485 3.50031L5.24985 3.50031L5.24985 2.75031C5.24985 2.33546 5.585 2.00031 5.99985 2.00031ZM2.99985 6.5003L13.4998 6.5003L13.4998 12.8753C13.4998 13.4964 12.9959 14.0003 12.3748 14.0003L4.12485 14.0003C3.50375 14.0003 2.99985 13.4964 2.99985 12.8753L2.99985 6.5003ZM10.3123 10.8128C10.6241 10.8128 10.8748 10.562 10.8748 10.2503C10.8748 9.93859 10.6241 9.6878 10.3123 9.6878L6.18735 9.6878C5.87563 9.6878 5.62485 9.93859 5.62485 10.2503C5.62485 10.562 5.87563 10.8128 6.18735 10.8128L10.3123 10.8128Z" fill="#312A47"/>
</svg>
