<svg width="24" height="24" viewBox="0 0 24 24" fill="none" xmlns="http://www.w3.org/2000/svg">
<g clip-path="url(#clip0_4754_7822)">
<path fill-rule="evenodd" clip-rule="evenodd" d="M9.72747 1.60494C10.9243 0.216425 13.0767 0.216217 14.2734 1.60494L15.8964 3.48873C16.0777 3.69912 16.3386 3.82485 16.6161 3.83541L19.1015 3.93014C20.9331 4.00027 22.2748 5.6826 21.9355 7.48385L21.4745 9.92819C21.4232 10.201 21.4876 10.483 21.6523 10.7065L23.1279 12.7085C24.2153 14.1842 23.7361 16.2823 22.1161 17.1401L19.9179 18.3032C19.6727 18.4331 19.492 18.6593 19.4199 18.9272L18.7753 21.3296C18.2996 23.0999 16.3604 24.0331 14.6796 23.3012L12.3993 22.3081C12.1451 22.1975 11.8558 22.1976 11.6015 22.3081L9.32122 23.3012C7.64038 24.0333 5.70127 23.1001 5.22552 21.3296L4.58099 18.9272C4.5089 18.6592 4.32816 18.4331 4.08294 18.3032L1.8847 17.1401C0.264438 16.2824 -0.214452 14.1843 0.872982 12.7085L2.34857 10.7065C2.51309 10.4831 2.57762 10.2009 2.5263 9.92819L2.06634 7.48385C1.72682 5.68242 3.06758 4.00014 4.89935 3.93014L7.3847 3.83541C7.6621 3.82474 7.92321 3.69904 8.10443 3.48873L9.72747 1.60494ZM16.5898 8.80026C16.2117 8.4001 15.5939 8.39998 15.2118 8.80026L10.7001 13.5317L8.78997 11.5307C8.41195 11.1304 7.79414 11.1346 7.41204 11.5307C7.02995 11.9268 7.02995 12.5737 7.41204 12.9741L10.0136 15.6997C10.3916 16.0999 11.0095 16.1 11.3915 15.6997L16.5937 10.2485L16.5898 10.2446C16.9719 9.84851 16.9678 9.2006 16.5898 8.80026Z" fill="currentColor"/>
</g>
<defs>
<clipPath id="clip0_4754_7822">
<rect width="24" height="24" fill="white"/>
</clipPath>
</defs>
</svg>
