<svg width="16" height="16" viewBox="0 0 16 16" fill="none" xmlns="http://www.w3.org/2000/svg">
<path d="M6.76516 4.13873C7.26378 3.56015 8.161 3.56025 8.65969 4.13873L9.33547 4.92389C9.41102 5.01156 9.52061 5.06401 9.63625 5.06842L10.6714 5.10748C11.4347 5.13663 11.9936 5.83831 11.8521 6.58892L11.6597 7.60748C11.6384 7.72103 11.6654 7.83869 11.7339 7.9317L12.3491 8.76568C12.8021 9.38061 12.6023 10.255 11.9273 10.6124L11.0113 11.0967C10.9092 11.1509 10.8343 11.245 10.8042 11.3565L10.5357 12.3575C10.3374 13.0952 9.52898 13.4838 8.82864 13.1788L7.87844 12.7657C7.77248 12.7197 7.65235 12.7196 7.54641 12.7657L6.59622 13.1788C5.89587 13.4838 5.08839 13.0952 4.89016 12.3575L4.62161 11.3565C4.59155 11.2448 4.51581 11.1509 4.4136 11.0967L3.49758 10.6124C2.82257 10.2551 2.62286 9.3806 3.07571 8.76568L3.69094 7.9317C3.75951 7.83867 3.78643 7.72105 3.76516 7.60748L3.57375 6.58892C3.43225 5.8384 3.99034 5.13683 4.75344 5.10748L5.78957 5.06842C5.90514 5.06395 6.01388 5.0115 6.08938 4.92389L6.76516 4.13873Z" fill="currentColor"/>
</svg>
