<svg width="24" height="24" viewBox="0 0 24 24" fill="none" xmlns="http://www.w3.org/2000/svg">
<g clip-path="url(#clip0_4754_7788)">
<path d="M9.72754 1.60552C10.9243 0.216781 13.0757 0.216781 14.2725 1.60552L15.8965 3.48931C16.0777 3.69958 16.3378 3.82534 16.6152 3.83599L19.1006 3.93071C20.9327 4.00045 22.2743 5.68276 21.9346 7.48442L21.4736 9.92778C21.4222 10.2007 21.4866 10.4835 21.6514 10.7071L23.127 12.709C24.2145 14.1849 23.7355 16.282 22.1152 17.1397L19.918 18.3038C19.6725 18.4337 19.492 18.6596 19.4199 18.9278L18.7744 21.3292C18.2988 23.0997 16.3605 24.0336 14.6797 23.3018L12.3994 22.3086C12.1448 22.1977 11.8552 22.1977 11.6006 22.3086L9.32031 23.3018C7.63948 24.0336 5.70122 23.0997 5.22559 21.3292L4.58008 18.9278C4.508 18.6596 4.32749 18.4337 4.08203 18.3038L1.88477 17.1397C0.264457 16.282 -0.214508 14.1849 0.873047 12.709L2.34863 10.7071C2.51342 10.4835 2.57783 10.2007 2.52637 9.92778L2.06543 7.48442C1.72574 5.68276 3.06734 4.00045 4.89941 3.93071L7.38477 3.83599C7.66215 3.82534 7.92228 3.69958 8.10352 3.48931L9.72754 1.60552ZM12.7578 2.91118C12.3589 2.44822 11.6411 2.44822 11.2422 2.91118L9.61914 4.79497C9.0753 5.4261 8.29344 5.80321 7.46094 5.83501L4.97559 5.92876C4.36505 5.952 3.91736 6.51295 4.03027 7.11333L4.49121 9.55767C4.64558 10.3765 4.45237 11.2229 3.95801 11.8936L2.48242 13.8956C2.12026 14.3875 2.28035 15.0863 2.82031 15.3721L5.01758 16.5362C5.75402 16.926 6.29554 17.6045 6.51172 18.4092L7.15723 20.8106C7.31578 21.4008 7.96216 21.7119 8.52246 21.4678L10.8018 20.4747C11.5657 20.1419 12.4343 20.1419 13.1982 20.4747L15.4775 21.4678C16.0378 21.7119 16.6842 21.4008 16.8428 20.8106L17.4883 18.4092C17.7045 17.6045 18.246 16.926 18.9824 16.5362L21.1797 15.3721C21.7197 15.0863 21.8797 14.3875 21.5176 13.8956L20.042 11.8936C19.5476 11.2229 19.3544 10.3765 19.5088 9.55767L19.9697 7.11333C20.0826 6.51295 19.6349 5.952 19.0244 5.92876L16.5391 5.83501C15.7066 5.80321 14.9247 5.4261 14.3809 4.79497L12.7578 2.91118Z" fill="currentColor"/>
</g>
<defs>
<clipPath id="clip0_4754_7788">
<rect width="24" height="24" fill="white"/>
</clipPath>
</defs>
</svg>
