<svg width="16" height="16" viewBox="0 0 16 16" fill="none" xmlns="http://www.w3.org/2000/svg">
<path fill-rule="evenodd" clip-rule="evenodd" d="M11.2499 2.90112C11.4764 2.90112 11.6715 2.90068 11.8314 2.91374C11.9961 2.9272 12.16 2.95712 12.3176 3.03744C12.5527 3.15726 12.7439 3.34842 12.8637 3.5835C12.944 3.7411 12.9739 3.90508 12.9874 4.06974C13.0004 4.22959 13 4.42477 13 4.65121V11.4672C13 11.6584 13.0004 11.8309 12.9878 11.9681C12.9756 12.1015 12.9464 12.2761 12.8332 12.4271C12.6879 12.6206 12.4658 12.7415 12.2244 12.7583C12.0362 12.7714 11.874 12.7009 11.7553 12.6387C11.6943 12.6067 11.6277 12.5671 11.5563 12.5227L11.328 12.377L8.13591 10.3112C8.06607 10.266 8.02965 10.243 8.00244 10.2278C8.00085 10.2269 7.99916 10.2269 7.99756 10.2278C7.97035 10.243 7.93393 10.266 7.8641 10.3112L4.67196 12.377C4.51144 12.4809 4.36671 12.5747 4.24471 12.6387C4.12604 12.7009 3.96381 12.7714 3.77556 12.7583C3.53421 12.7415 3.31206 12.6206 3.16683 12.4271C3.0536 12.2761 3.02445 12.1015 3.01221 11.9681C2.99964 11.8309 3 11.6584 3 11.4672V4.65121C3 4.42477 2.99956 4.22959 3.01262 4.06974C3.02608 3.90508 3.05603 3.7411 3.13631 3.5835C3.25613 3.34842 3.4473 3.15726 3.68237 3.03744C3.83999 2.95713 4.00393 2.9272 4.16862 2.91374C4.32848 2.90068 4.5236 2.90112 4.75008 2.90112H11.2499Z" fill="currentColor"/>
</svg>
