<svg width="24" height="24" viewBox="0 0 24 24" fill="none" xmlns="http://www.w3.org/2000/svg">
<g clip-path="url(#clip0_4754_7846)">
<path fill-rule="evenodd" clip-rule="evenodd" d="M19.7998 0.2002C20.3434 0.2002 20.8116 0.199126 21.1953 0.230473C21.5906 0.262785 21.984 0.334598 22.3623 0.527348C22.9265 0.814925 23.3853 1.2737 23.6729 1.8379C23.8655 2.21614 23.9374 2.60969 23.9697 3.00489C24.0011 3.38852 24 3.85695 24 4.40039V20.7588C24 21.2176 24.0009 21.6318 23.9707 21.9609C23.9413 22.2812 23.8714 22.7002 23.5996 23.0625C23.2511 23.5269 22.7179 23.8172 22.1387 23.8574C21.6869 23.8888 21.2975 23.7196 21.0127 23.5703C20.8664 23.4936 20.7065 23.3987 20.5352 23.292L19.9873 22.9424L12.3262 17.9844C12.1586 17.8759 12.0712 17.8207 12.0059 17.7842C12.002 17.782 11.998 17.782 11.9941 17.7842C11.9288 17.8207 11.8414 17.8759 11.6738 17.9844L4.0127 22.9424C3.62746 23.1916 3.28009 23.4168 2.98731 23.5703C2.7025 23.7196 2.31314 23.8888 1.86133 23.8574C1.28212 23.8172 0.748933 23.5269 0.400395 23.0625C0.128642 22.7002 0.0586758 22.2812 0.0293011 21.9609C-0.000872843 21.6318 3.88981e-06 21.2176 4.1912e-06 20.7588V4.40039C4.1912e-06 3.85695 -0.00104995 3.38851 0.0302776 3.00489C0.0625832 2.6097 0.134474 2.21613 0.327153 1.8379C0.61471 1.27371 1.07352 0.814926 1.6377 0.527348C2.01599 0.334601 2.40944 0.262785 2.80469 0.230473C3.18836 0.199126 3.65665 0.2002 4.2002 0.2002H19.7998ZM16.5898 6.29981C16.2119 5.89983 15.5939 5.89977 15.2119 6.29981L10.7002 11.0322L8.79004 9.03028C8.41201 8.62994 7.79323 8.6342 7.41114 9.03028C7.02941 9.42624 7.02953 10.0733 7.41114 10.4736L10.0127 13.2002C10.3906 13.6003 11.0085 13.6001 11.3906 13.2002L16.5938 7.74805L16.5898 7.74414C16.9719 7.34806 16.9679 6.70015 16.5898 6.29981Z" fill="currentColor"/>
</g>
<defs>
<clipPath id="clip0_4754_7846">
<rect width="24" height="24" fill="white"/>
</clipPath>
</defs>
</svg>
