<svg width="24" height="24" viewBox="0 0 24 24" fill="none" xmlns="http://www.w3.org/2000/svg">
<g clip-path="url(#clip0_4754_7851)">
<path d="M11.5449 15.8259C11.8443 15.756 12.1557 15.756 12.4551 15.8259C12.8345 15.9147 13.1613 16.1432 13.4121 16.3054L21.0742 21.2625C21.4928 21.5333 21.7491 21.6978 21.9414 21.7986C21.9526 21.8044 21.9638 21.8083 21.9736 21.8132C21.9748 21.8023 21.9783 21.7907 21.9795 21.7781C21.9993 21.5619 22 21.257 22 20.7585V4.40015C22 3.8236 21.9987 3.45107 21.9756 3.16773C21.9534 2.89614 21.9158 2.79529 21.8906 2.74585C21.7948 2.55788 21.6421 2.40517 21.4541 2.30933C21.4047 2.28414 21.3038 2.24657 21.0322 2.22437C20.7489 2.20122 20.3764 2.19996 19.7998 2.19996H4.2002C3.62365 2.19996 3.25112 2.20122 2.96778 2.22437C2.69619 2.24657 2.59534 2.28414 2.5459 2.30933C2.35793 2.40517 2.20522 2.55788 2.10938 2.74585C2.08419 2.79529 2.04662 2.89614 2.02442 3.16773C2.00127 3.45107 2 3.8236 2 4.40015V20.7585C2 21.257 2.0007 21.5619 2.02051 21.7781C2.02166 21.7906 2.0242 21.8023 2.0254 21.8132C2.03543 21.8082 2.04712 21.8046 2.0586 21.7986C2.25086 21.6978 2.50719 21.5333 2.92579 21.2625L10.5879 16.3054C10.8387 16.1432 11.1655 15.9147 11.5449 15.8259ZM24 20.7585C24 21.2174 24.0009 21.6315 23.9707 21.9607C23.9413 22.281 23.8714 22.6999 23.5996 23.0623C23.2511 23.5267 22.718 23.8169 22.1387 23.8572C21.6868 23.8885 21.2975 23.7194 21.0127 23.5701C20.7199 23.4166 20.3726 23.1914 19.9873 22.9421L12.3262 17.9841C12.1585 17.8756 12.0712 17.8205 12.0059 17.7839C12.0038 17.7828 12.0019 17.7811 12 17.78C11.9981 17.7811 11.9962 17.7828 11.9941 17.7839C11.9288 17.8205 11.8415 17.8756 11.6738 17.9841L4.0127 22.9421C3.62742 23.1914 3.28012 23.4166 2.98731 23.5701C2.70249 23.7194 2.31319 23.8885 1.86133 23.8572C1.28205 23.8169 0.748929 23.5267 0.400395 23.0623C0.128575 22.6999 0.0586635 22.281 0.0293013 21.9607C-0.000877731 21.6315 4.41348e-06 21.2174 4.41348e-06 20.7585V4.40015C4.41348e-06 3.8566 -0.00106931 3.38831 0.0302779 3.00464C0.0625888 2.60939 0.134401 2.21595 0.327153 1.83765C0.614727 1.27343 1.07348 0.814678 1.6377 0.527104C2.016 0.334352 2.40943 0.26254 2.80469 0.230229C3.18836 0.198882 3.65665 0.199956 4.2002 0.199956H19.7998C20.3434 0.199956 20.8116 0.198882 21.1953 0.230229C21.5906 0.26254 21.984 0.334352 22.3623 0.527104C22.9265 0.814678 23.3853 1.27343 23.6729 1.83765C23.8656 2.21595 23.9374 2.60939 23.9697 3.00464C24.0011 3.38831 24 3.8566 24 4.40015V20.7585Z" fill="currentColor"/>
</g>
<defs>
<clipPath id="clip0_4754_7851">
<rect width="24" height="24" fill="white"/>
</clipPath>
</defs>
</svg>
