<svg width="16" height="16" viewBox="0 0 16 16" fill="none" xmlns="http://www.w3.org/2000/svg">
<path d="M7.66503 3.45877C7.8687 2.60581 9.08232 2.60592 9.28612 3.45877L9.42382 4.03495L9.8164 3.61307C10.4106 2.97285 11.4638 3.56158 11.2295 4.40311L11.0566 5.0242L11.6426 4.8494C12.472 4.60117 13.0834 5.62542 12.4707 6.23709L11.9883 6.71756L12.6308 6.88358C13.4658 7.09781 13.4658 8.28263 12.6308 8.49686L11.9883 8.66287L12.4707 9.14334C13.0834 9.75502 12.472 10.7793 11.6426 10.531L11.0566 10.3562L11.2295 10.9773C11.4638 11.8189 10.4106 12.4076 9.8164 11.7674L9.42382 11.3455L9.28612 11.9217C9.08231 12.7745 7.86871 12.7746 7.66503 11.9217L7.52831 11.3455L7.13573 11.7674C6.54158 12.4076 5.48755 11.8188 5.72167 10.9773L5.8955 10.3562L5.30956 10.531C4.48 10.7794 3.86856 9.75504 4.48144 9.14334L4.96288 8.66287L4.3203 8.49686C3.48568 8.28247 3.48568 7.09797 4.3203 6.88358L4.96288 6.71756L4.48144 6.23709C3.86856 5.6254 4.47999 4.60102 5.30956 4.8494L5.8955 5.0242L5.72167 4.40311C5.48752 3.56162 6.54158 2.97282 7.13573 3.61307L7.52831 4.03495L7.66503 3.45877Z" fill="currentColor"/>
</svg>
