<svg width="24" height="24" viewBox="0 0 24 24" fill="none" xmlns="http://www.w3.org/2000/svg">
<g clip-path="url(#clip0_4754_7779)">
<path d="M10.0548 1.84571C10.5434 -0.202158 13.4569 -0.202141 13.9454 1.84571L14.2755 3.22852L15.216 2.21387C16.642 0.677036 19.1718 2.09157 18.6095 4.11133L18.1935 5.60254L19.6007 5.18067C21.5916 4.5848 23.0581 7.0447 21.587 8.5127L20.4298 9.667L21.9738 10.0625C23.9772 10.5769 23.9772 13.4231 21.9738 13.9375L20.4298 14.333L21.587 15.4873C23.0581 16.9553 21.5916 19.4152 19.6007 18.8193L18.1935 18.3975L18.6095 19.8887C19.1718 21.9084 16.642 23.323 15.216 21.7861L14.2755 20.7715L13.9454 22.1543C13.4569 24.2022 10.5434 24.2021 10.0548 22.1543L9.72474 20.7715L8.78431 21.7861C7.35829 23.323 4.82846 21.9084 5.39076 19.8887L5.80678 18.3975L4.39955 18.8193C2.40865 19.4152 0.942158 16.9553 2.41322 15.4873L3.57045 14.333L2.0265 13.9375C0.0230665 13.4231 0.023068 10.5769 2.0265 10.0625L3.57045 9.667L2.41322 8.5127C0.942163 7.04471 2.40864 4.58479 4.39955 5.18067L5.80678 5.60254L5.39076 4.11133C4.82846 2.09157 7.35829 0.677038 8.78431 2.21387L9.72474 3.22852L10.0548 1.84571ZM11.6701 3.69239C11.2992 5.24646 9.34581 5.7598 8.25892 4.58887L7.31752 3.57422L7.73353 5.06543C8.15576 6.58207 6.74072 7.97011 5.23256 7.51856L3.82631 7.09668L4.98256 8.25098C6.07973 9.34576 5.5687 11.2191 4.06752 11.6045L2.52357 12L4.06752 12.3955C5.5687 12.7809 6.07972 14.6542 4.98256 15.749L3.82631 16.9033L5.23256 16.4814C6.74072 16.0299 8.15576 17.4179 7.73353 18.9346L7.31752 20.4258L8.25892 19.4111C9.34581 18.2402 11.2992 18.7535 11.6701 20.3076L12.0001 21.6904L12.3302 20.3076C12.7011 18.7536 14.6545 18.2402 15.7413 19.4111L16.6828 20.4258L16.2667 18.9346C15.8445 17.4179 17.2595 16.0299 18.7677 16.4814L20.174 16.9033L19.0177 15.749C17.9205 14.6542 18.4316 12.7809 19.9328 12.3955L21.4767 12L19.9328 11.6045C18.4316 11.2191 17.9205 9.34576 19.0177 8.25098L20.174 7.09668L18.7677 7.51856C17.2595 7.97011 15.8445 6.58207 16.2667 5.06543L16.6828 3.57422L15.7413 4.58887C14.6545 5.7598 12.7011 5.24646 12.3302 3.69239L12.0001 2.30957L11.6701 3.69239Z" fill="currentColor"/>
</g>
<defs>
<clipPath id="clip0_4754_7779">
<rect width="24" height="24" fill="white"/>
</clipPath>
</defs>
</svg>
