<svg width="24" height="24" viewBox="0 0 24 24" fill="none" xmlns="http://www.w3.org/2000/svg">
<g clip-path="url(#clip0_4754_7797)">
<path fill-rule="evenodd" clip-rule="evenodd" d="M10.0554 1.84542C10.544 -0.202362 13.4575 -0.202398 13.946 1.84542L14.2761 3.22823L15.2165 2.21456C16.6425 0.677623 19.1714 2.09126 18.6091 4.11105L18.1941 5.60226L19.6013 5.18136C21.5919 4.58579 23.058 7.04443 21.5876 8.51241L20.4304 9.66671L21.9734 10.0632C23.977 10.5775 23.9771 13.423 21.9734 13.9372L20.4304 14.3337L21.5876 15.488C23.0576 16.956 21.5918 19.4144 19.6013 18.8191L18.1941 18.3982L18.6091 19.8894C19.171 21.9089 16.6425 23.3223 15.2165 21.7859L14.2761 20.7722L13.946 22.155C13.4574 24.2025 10.5442 24.2024 10.0554 22.155L9.72533 20.7722L8.7849 21.7859C7.35895 23.3227 4.82939 21.909 5.39134 19.8894L5.80638 18.3982L4.40013 18.8191C2.40918 19.4152 0.942915 16.9561 2.4138 15.488L3.57005 14.3337L2.02708 13.9372C0.0235232 13.4229 0.0235254 10.5775 2.02708 10.0632L3.57005 9.66671L2.4138 8.51241C0.942908 7.04436 2.40917 4.58526 4.40013 5.18136L5.80638 5.60226L5.39134 4.11105C4.82919 2.09133 7.35892 0.677659 8.7849 2.21456L9.72533 3.22823L10.0554 1.84542ZM16.5906 8.3005C16.2126 7.90018 15.5947 7.90023 15.2126 8.3005L10.6999 13.0319L8.78978 11.03C8.41178 10.6298 7.79391 10.6341 7.41185 11.03C7.02976 11.4261 7.02976 12.074 7.41185 12.4743L10.0134 15.1999C10.3914 15.6001 11.0093 15.6001 11.3913 15.1999L16.5945 9.74874L16.5906 9.74386C16.9723 9.34786 16.9682 8.70078 16.5906 8.3005Z" fill="currentColor"/>
</g>
<defs>
<clipPath id="clip0_4754_7797">
<rect width="24" height="24" fill="white"/>
</clipPath>
</defs>
</svg>
