<svg width="24" height="24" viewBox="0 0 24 24" fill="none" xmlns="http://www.w3.org/2000/svg">
<path d="M12 0C18.6274 0 24 5.37258 24 12C24 18.6274 18.6274 24 12 24C5.37258 24 0 18.6274 0 12C0 5.37258 5.37258 0 12 0ZM16.5898 8.2998C16.2119 7.89982 15.5939 7.89977 15.2119 8.2998L10.7002 13.0322L8.78906 11.0303C8.41101 10.6302 7.79316 10.6343 7.41113 11.0303C7.0294 11.4262 7.02952 12.0733 7.41113 12.4736L10.0127 15.2002C10.3906 15.6003 11.0085 15.6001 11.3906 15.2002L16.5938 9.74805L16.5898 9.74414C16.9719 9.34806 16.9679 8.70015 16.5898 8.2998Z" fill="currentColor"/>
</svg>
