<svg width="24" height="24" viewBox="0 0 24 24" fill="none" xmlns="http://www.w3.org/2000/svg">
<g clip-path="url(#clip0_4754_7827)">
<path d="M10.4551 0.401388C11.4592 0.0751883 12.5409 0.0751883 13.5449 0.401388C14.1772 0.606806 14.7189 0.971091 15.2764 1.44436C15.8249 1.91001 16.4522 2.53813 17.2324 3.31838L20.6817 6.7676C21.4619 7.54785 22.09 8.17516 22.5557 8.72365C23.029 9.28114 23.3932 9.82289 23.5987 10.4551C23.9249 11.4592 23.9249 12.5409 23.5987 13.5449C23.3932 14.1772 23.029 14.7189 22.5557 15.2764C22.09 15.8249 21.4619 16.4522 20.6817 17.2324L17.2324 20.6817C16.4522 21.4619 15.8249 22.09 15.2764 22.5557C14.7189 23.029 14.1772 23.3932 13.5449 23.5987C12.5409 23.9249 11.4592 23.9249 10.4551 23.5987C9.82289 23.3932 9.28114 23.029 8.72365 22.5557C8.17516 22.09 7.54785 21.4619 6.7676 20.6817L3.31838 17.2324C2.53813 16.4522 1.91001 15.8249 1.44436 15.2764C0.971091 14.7189 0.606806 14.1772 0.401388 13.5449C0.0751883 12.5409 0.0751883 11.4592 0.401388 10.4551C0.606806 9.82289 0.971091 9.28114 1.44436 8.72365C1.91001 8.17516 2.53813 7.54785 3.31838 6.7676L6.7676 3.31838C7.54785 2.53813 8.17516 1.91001 8.72365 1.44436C9.28114 0.971091 9.82289 0.606806 10.4551 0.401388ZM12.9268 2.30373C12.3244 2.10807 11.6756 2.10807 11.0733 2.30373C10.7922 2.39507 10.4805 2.57582 10.0176 2.96877C9.54586 3.36928 8.98517 3.92894 8.18166 4.73244L4.73244 8.18166C3.92894 8.98517 3.36928 9.54586 2.96877 10.0176C2.57582 10.4805 2.39507 10.7922 2.30373 11.0733C2.10807 11.6756 2.10807 12.3244 2.30373 12.9268C2.39507 13.2079 2.57582 13.5196 2.96877 13.9824C3.36928 14.4542 3.92894 15.0149 4.73244 15.8184L8.18166 19.2676C8.98517 20.0711 9.54586 20.6308 10.0176 21.0313C10.4805 21.4242 10.7922 21.605 11.0733 21.6963C11.6756 21.892 12.3244 21.892 12.9268 21.6963C13.2079 21.605 13.5196 21.4242 13.9824 21.0313C14.4542 20.6308 15.0149 20.0711 15.8184 19.2676L19.2676 15.8184C20.0711 15.0149 20.6308 14.4542 21.0313 13.9824C21.4242 13.5196 21.605 13.2079 21.6963 12.9268C21.892 12.3244 21.892 11.6756 21.6963 11.0733C21.605 10.7922 21.4242 10.4805 21.0313 10.0176C20.6308 9.54586 20.0711 8.98517 19.2676 8.18166L15.8184 4.73244C15.0149 3.92894 14.4542 3.36928 13.9824 2.96877C13.5196 2.57582 13.2079 2.39507 12.9268 2.30373Z" fill="currentColor"/>
</g>
<defs>
<clipPath id="clip0_4754_7827">
<rect width="24" height="24" fill="white"/>
</clipPath>
</defs>
</svg>
