<svg width="24" height="24" viewBox="0 0 24 24" fill="none" xmlns="http://www.w3.org/2000/svg">
<g clip-path="url(#clip0_4754_7812)">
<path fill-rule="evenodd" clip-rule="evenodd" d="M10.4556 0.401882C11.4597 0.075716 12.5413 0.0756335 13.5454 0.401882C14.1775 0.607306 14.7194 0.970665 15.2768 1.44387C15.8254 1.90955 16.4526 2.53856 17.2329 3.31887L20.6821 6.76809C21.4623 7.54823 22.0905 8.17571 22.5561 8.72415C23.0293 9.28152 23.3927 9.8235 23.5981 10.4556C23.9243 11.4597 23.9244 12.5414 23.5981 13.5454C23.3927 14.1774 23.0293 14.7195 22.5561 15.2769C22.0905 15.8253 21.4623 16.4528 20.6821 17.2329L17.2329 20.6822C16.4527 21.4623 15.8253 22.0906 15.2768 22.5562C14.7195 23.0293 14.1774 23.3928 13.5454 23.5982C12.5413 23.9244 11.4596 23.9243 10.4556 23.5982C9.82344 23.3928 9.28149 23.0293 8.72411 22.5562C8.17567 22.0906 7.54819 21.4623 6.76805 20.6822L3.31883 17.2329C2.53853 16.4526 1.90951 15.8254 1.44383 15.2769C0.97067 14.7195 0.607276 14.1775 0.40184 13.5454C0.0756196 12.5414 0.0757576 11.4596 0.40184 10.4556C0.607192 9.82359 0.970787 9.28144 1.44383 8.72415C1.90947 8.17565 2.53858 7.54834 3.31883 6.76809L6.76805 3.31887C7.5483 2.53862 8.17561 1.90953 8.72411 1.44387C9.28143 0.970784 9.82353 0.607262 10.4556 0.401882ZM16.5903 8.80032C16.2123 8.40003 15.5945 8.40014 15.2124 8.80032L10.6997 13.5318L8.78954 11.5298C8.41156 11.1298 7.79365 11.134 7.41161 11.5298C7.02951 11.9259 7.02951 12.5738 7.41161 12.9741L10.0132 15.6997C10.3912 16.1 11.009 16.1001 11.3911 15.6997L16.5942 10.2486L16.5903 10.2437C16.972 9.84764 16.968 9.20056 16.5903 8.80032Z" fill="currentColor"/>
</g>
<defs>
<clipPath id="clip0_4754_7812">
<rect width="24" height="24" fill="white"/>
</clipPath>
</defs>
</svg>
