<svg width="16" height="16" viewBox="0 0 16 16" fill="none" xmlns="http://www.w3.org/2000/svg">
<path d="M7.19953 3.01009C7.61782 2.87428 8.06838 2.8742 8.48664 3.01009C8.75004 3.09568 8.97606 3.24749 9.20832 3.44466C9.43682 3.63867 9.69777 3.9009 10.0228 4.22591L11.4603 5.66244C11.7854 5.98751 12.0475 6.24934 12.2415 6.47786C12.4386 6.71004 12.5896 6.93624 12.6751 7.19954C12.811 7.61786 12.811 8.06836 12.6751 8.48665C12.5895 8.74998 12.4387 8.97611 12.2415 9.20833C12.0475 9.43685 11.7853 9.69774 11.4603 10.0228L10.0228 11.4603C9.69778 11.7853 9.43681 12.0476 9.20832 12.2415C8.97611 12.4387 8.74997 12.5895 8.48664 12.6751C8.06833 12.811 7.61786 12.811 7.19953 12.6751C6.93623 12.5896 6.71003 12.4386 6.47785 12.2415C6.24933 12.0475 5.9875 11.7854 5.66243 11.4603L4.2259 10.0228C3.90089 9.69778 3.63866 9.43682 3.44465 9.20833C3.24748 8.97607 3.09567 8.75005 3.01008 8.48665C2.87419 8.06841 2.8743 7.61782 3.01008 7.19954C3.09565 6.93618 3.24752 6.7101 3.44465 6.47786C3.63868 6.24932 3.90079 5.98754 4.2259 5.66244L5.66243 4.22591C5.98748 3.90086 6.24934 3.63868 6.47785 3.44466C6.71009 3.24753 6.93617 3.09566 7.19953 3.01009Z" fill="currentColor"/>
</svg>
