<svg width="16" height="16" viewBox="0 0 16 16" fill="none" xmlns="http://www.w3.org/2000/svg">
<path d="M9.19336 3.05756C9.79436 2.79164 10.4285 2.78181 11.001 2.97748C12.1427 3.36786 12.9998 4.55101 13 6.05951C13 7.41451 12.3298 8.66365 11.4932 9.71479C10.6527 10.7706 9.60617 11.6749 8.77246 12.3456C8.32132 12.7086 7.67868 12.7086 7.22754 12.3456C6.39377 11.6748 5.34632 10.7707 4.50586 9.71479C3.66934 8.6637 3 7.41441 3 6.05951C3.00023 4.55101 3.8573 3.36786 4.99902 2.97748C5.57136 2.78185 6.20477 2.7918 6.80566 3.05756C7.21571 3.239 7.59812 3.53405 7.93262 3.94428C7.96716 3.98665 8.03284 3.98665 8.06738 3.94428C8.40176 3.5342 8.78348 3.23902 9.19336 3.05756Z" fill="currentColor"/>
</svg>
