<svg width="24" height="24" viewBox="0 0 24 24" fill="none" xmlns="http://www.w3.org/2000/svg">
<path fill-rule="evenodd" clip-rule="evenodd" d="M14.8652 1.0156C16.3076 0.377384 17.8283 0.353595 19.2021 0.823215C21.9427 1.76012 23.9999 4.60058 24 8.22165C24 11.4736 22.3926 14.4704 20.3848 16.9931C18.3675 19.5276 15.8546 21.6976 13.8535 23.3076C12.7708 24.1786 11.2292 24.1786 10.1465 23.3076C8.14538 21.6976 5.63246 19.5276 3.61523 16.9931C1.60739 14.4704 1.78536e-05 11.4736 0 8.22165C0.000126794 4.60058 2.05728 1.76012 4.79785 0.823215C6.17175 0.353595 7.69235 0.377384 9.13477 1.0156C10.119 1.4511 11.036 2.15981 11.8389 3.1445C11.9218 3.24574 12.0782 3.24574 12.1611 3.1445C12.964 2.15981 13.881 1.4511 14.8652 1.0156ZM16.9648 7.79978C16.5869 7.39978 15.9689 7.39972 15.5869 7.79978L11.0752 12.5322L9.16406 10.5302C8.78602 10.1301 8.16816 10.1342 7.78613 10.5302C7.40441 10.9262 7.40451 11.5733 7.78613 11.9736L10.3877 14.7002C10.7656 15.1003 11.3835 15.1 11.7656 14.7002L16.9688 9.24802L16.9648 9.24411C17.3469 8.84803 17.3429 8.20012 16.9648 7.79978Z" fill="currentColor"/>
</svg>
