<svg width="24" height="24" viewBox="0 0 24 24" fill="none" xmlns="http://www.w3.org/2000/svg">
<path d="M22 8.22166C21.9999 5.35528 20.3956 3.34496 18.5557 2.7158C17.6393 2.40251 16.6395 2.4179 15.6748 2.84471C14.707 3.27293 13.7094 4.14536 12.875 5.65428C12.6989 5.97273 12.3639 6.17088 12 6.17088C11.6361 6.17088 11.3011 5.97273 11.125 5.65428C10.2906 4.14536 9.29301 3.27293 8.3252 2.84471C7.36052 2.4179 6.36075 2.40251 5.44434 2.7158C3.60436 3.34496 2.00008 5.35528 2 8.22166C2 10.818 3.29383 13.3775 5.17969 15.7471C7.0563 18.1049 9.4306 20.1642 11.4004 21.749C11.7511 22.031 12.2489 22.031 12.5996 21.749C14.5694 20.1642 16.9437 18.1049 18.8203 15.7471C20.7062 13.3775 22 10.818 22 8.22166ZM24 8.22166C24 11.4736 22.3926 14.4704 20.3848 16.9931C18.3675 19.5276 15.8546 21.6976 13.8535 23.3076C12.7708 24.1785 11.2292 24.1785 10.1465 23.3076C8.14539 21.6976 5.63246 19.5276 3.61523 16.9931C1.60738 14.4704 0 11.4736 0 8.22166C7.90924e-05 4.60052 2.05724 1.76013 4.79785 0.823223C6.17176 0.353589 7.69234 0.377385 9.13477 1.01561C10.1855 1.48057 11.1595 2.25641 12 3.34764C12.8405 2.25641 13.8145 1.48057 14.8652 1.01561C16.3077 0.377385 17.8282 0.353589 19.2021 0.823223C21.9428 1.76013 23.9999 4.60052 24 8.22166Z" fill="currentColor"/>
</svg>
