<svg width="16" height="16" viewBox="0 0 16 16" fill="none" xmlns="http://www.w3.org/2000/svg">
<path d="M7.48249 2.99265C7.65383 2.95623 7.83165 2.95623 8.00299 2.99265C8.2119 3.03709 8.39977 3.1507 8.61823 3.27683L11.3438 4.85105C11.5623 4.97721 11.7555 5.0829 11.8985 5.24167C12.0154 5.37164 12.1042 5.52464 12.1583 5.69089C12.2243 5.89405 12.2188 6.11438 12.2188 6.36667V9.51413C12.2188 9.7662 12.2241 9.98593 12.1583 10.1889C12.1041 10.3555 12.0157 10.5099 11.8985 10.6401C11.7556 10.7988 11.5623 10.9036 11.3438 11.0298L8.61823 12.604C8.39979 12.7301 8.21188 12.8437 8.00299 12.8882C7.83165 12.9246 7.65383 12.9246 7.48249 12.8882C7.27383 12.8437 7.08644 12.73 6.86823 12.604L4.14167 11.0298C3.92341 10.9037 3.73083 10.7986 3.58796 10.6401C3.47074 10.5099 3.38232 10.3555 3.32819 10.1889C3.26229 9.98588 3.26666 9.76626 3.26667 9.51413V6.36667C3.26666 6.11438 3.26218 5.89405 3.32819 5.69089C3.38233 5.52459 3.47094 5.37166 3.58796 5.24167C3.73088 5.08294 3.9232 4.97718 4.14167 4.85105L6.86823 3.27683C7.08643 3.15084 7.27383 3.03714 7.48249 2.99265Z" fill="currentColor"/>
</svg>
