<svg width="24" height="24" viewBox="0 0 24 24" fill="none" xmlns="http://www.w3.org/2000/svg">
<path fill-rule="evenodd" clip-rule="evenodd" d="M11.3761 0.1251C11.7873 0.0377087 12.213 0.0377456 12.6242 0.1251C13.1256 0.231724 13.5755 0.505985 14.0998 0.808694L20.6427 4.58604C21.1672 4.88883 21.6297 5.14153 21.9728 5.52256C22.254 5.83484 22.4659 6.20304 22.5959 6.60264C22.7146 6.96825 22.739 7.35591 22.7433 7.78233V16.2179C22.739 16.6442 22.7146 17.0319 22.5959 17.3976C22.4659 17.7973 22.2541 18.1663 21.9728 18.4786C21.6297 18.8595 21.1671 19.1124 20.6427 19.4151L14.0998 23.1925C13.5757 23.4951 13.1254 23.7685 12.6242 23.8751C12.2131 23.9624 11.7872 23.9625 11.3761 23.8751C10.8749 23.7684 10.4247 23.4951 9.90055 23.1925L3.35758 19.4151C2.83319 19.1124 2.37057 18.8596 2.0275 18.4786C1.74623 18.1662 1.53437 17.7973 1.40446 17.3976C1.24613 16.9101 1.25699 16.3837 1.257 15.7784V8.22276C1.25699 7.61738 1.24614 7.09014 1.40446 6.60264C1.53434 6.20316 1.74649 5.83477 2.0275 5.52256C2.37053 5.14159 2.83326 4.88875 3.35758 4.58604L9.90055 0.808694C10.4248 0.506025 10.8748 0.231788 11.3761 0.1251ZM16.59 8.80088C16.212 8.40054 15.5942 8.40054 15.2121 8.80088L10.7004 13.5323L8.7902 11.5304C8.41225 11.1301 7.79438 11.1345 7.41227 11.5304C7.03018 11.9265 7.03018 12.5744 7.41227 12.9747L10.0138 15.7003C10.3919 16.1002 11.0098 16.1005 11.3918 15.7003L16.5939 10.2481L16.59 10.2442C16.9721 9.84819 16.968 9.20123 16.59 8.80088Z" fill="currentColor"/>
</svg>
