<svg width="24" height="24" viewBox="0 0 24 24" fill="none" xmlns="http://www.w3.org/2000/svg">
<path d="M20.7433 8.22254C20.7433 7.48202 20.7308 7.33546 20.6935 7.22059C20.6502 7.08739 20.5802 6.96433 20.4865 6.86023C20.4057 6.77047 20.284 6.68752 19.6427 6.31727L13.0998 2.53992C12.4587 2.16981 12.3263 2.10606 12.2082 2.08094C12.0711 2.0518 11.9292 2.0518 11.7922 2.08094C11.674 2.10606 11.5416 2.16981 10.9006 2.53992L4.35758 6.31727C3.71628 6.68752 3.59465 6.77047 3.51383 6.86023C3.42013 6.96433 3.3501 7.08739 3.3068 7.22059C3.26948 7.33546 3.257 7.48202 3.257 8.22254V15.7772C3.257 16.5177 3.26948 16.6643 3.3068 16.7792C3.3501 16.9124 3.42013 17.0354 3.51383 17.1395C3.59465 17.2293 3.71628 17.3122 4.35758 17.6825L10.9006 21.4598C11.5416 21.83 11.674 21.8937 11.7922 21.9188C11.9292 21.948 12.0711 21.948 12.2082 21.9188C12.3263 21.8937 12.4587 21.83 13.0998 21.4598L19.6427 17.6825C20.284 17.3122 20.4057 17.2293 20.4865 17.1395C20.5802 17.0354 20.6502 16.9124 20.6935 16.7792C20.7308 16.6643 20.7433 16.5177 20.7433 15.7772V8.22254ZM22.7433 15.7772C22.7433 16.3828 22.7543 16.9097 22.5959 17.3973C22.466 17.797 22.254 18.1651 21.9728 18.4774C21.6297 18.8585 21.1672 19.1121 20.6427 19.4149L14.0998 23.1923C13.5756 23.4949 13.1255 23.7683 12.6242 23.8749C12.213 23.9623 11.7874 23.9623 11.3761 23.8749C10.8748 23.7683 10.4248 23.4949 9.90055 23.1923L3.35758 19.4149C2.83312 19.1121 2.37061 18.8585 2.02751 18.4774C1.74637 18.1651 1.53434 17.797 1.40446 17.3973C1.24601 16.9097 1.257 16.3828 1.257 15.7772V8.22254C1.257 7.61694 1.24601 7.09008 1.40446 6.60242C1.53434 6.20278 1.74637 5.83466 2.02751 5.52234C2.37061 5.14129 2.83312 4.88765 3.35758 4.58484L9.90055 0.807501C10.4248 0.504835 10.8748 0.23151 11.3761 0.124883C11.7874 0.0374737 12.213 0.0374738 12.6242 0.124883C13.1255 0.231511 13.5756 0.504835 14.0998 0.807501L20.6427 4.58484C21.1672 4.88765 21.6297 5.14129 21.9728 5.52234C22.254 5.83466 22.466 6.20278 22.5959 6.60242C22.7543 7.09008 22.7433 7.61694 22.7433 8.22254V15.7772Z" fill="currentColor"/>
</svg>
