<svg width="24" height="24" viewBox="0 0 24 24" fill="none" xmlns="http://www.w3.org/2000/svg">
<g clip-path="url(#clip0_4754_7835)">
<path d="M11.005 0.583919C11.6576 0.416363 12.3426 0.416363 12.9952 0.583919C13.7789 0.785247 14.465 1.30512 15.4093 1.99115L21.1788 6.18255C22.1231 6.86864 22.8301 7.36065 23.2638 8.04388C23.6248 8.61275 23.8357 9.26404 23.878 9.93646C23.9288 10.7441 23.6469 11.5577 23.2862 12.6679L21.0821 19.4501C20.7214 20.5602 20.4719 21.3842 19.9561 22.0077C19.5267 22.5268 18.9731 22.9296 18.3468 23.1777C17.5944 23.4756 16.7336 23.4579 15.5665 23.4579H8.43367C7.26655 23.4579 6.40577 23.4756 5.6534 23.1777C5.02703 22.9296 4.47345 22.5268 4.04403 22.0077C3.52825 21.3842 3.27874 20.5602 2.91805 19.4501L0.713947 12.6679C0.353224 11.5577 0.0713349 10.7441 0.12215 9.93646C0.164458 9.26404 0.375394 8.61275 0.736408 8.04388C1.17005 7.36065 1.87705 6.86864 2.82137 6.18255L8.5909 1.99115C9.53514 1.30512 10.2213 0.785247 11.005 0.583919ZM12.4972 2.52142C12.171 2.4377 11.8292 2.4377 11.503 2.52142C11.1783 2.60479 10.85 2.82125 9.76668 3.60833L3.99617 7.80072C2.91277 8.58786 2.60551 8.8331 2.42586 9.11615C2.24535 9.40058 2.1394 9.72622 2.11824 10.0624C2.09729 10.397 2.20254 10.7764 2.61629 12.0497L4.82039 18.832C5.23429 20.1058 5.37133 20.475 5.58504 20.7333C5.79967 20.9927 6.07671 21.1933 6.38973 21.3173C6.70143 21.4407 7.09457 21.4579 8.43367 21.4579H15.5665C16.9056 21.4579 17.2987 21.4407 17.6104 21.3173C17.9235 21.1933 18.2005 20.9927 18.4151 20.7333C18.6288 20.475 18.7659 20.1058 19.1798 18.832L21.3839 12.0497C21.7976 10.7764 21.9029 10.397 21.8819 10.0624C21.8608 9.72622 21.7548 9.40058 21.5743 9.11615C21.3946 8.8331 21.0874 8.58786 20.004 7.80072L14.2335 3.60833C13.1501 2.82125 12.8219 2.60479 12.4972 2.52142Z" fill="currentColor"/>
</g>
<defs>
<clipPath id="clip0_4754_7835">
<rect width="24" height="24" fill="white"/>
</clipPath>
</defs>
</svg>
