<svg width="16" height="16" viewBox="0 0 16 16" fill="none" xmlns="http://www.w3.org/2000/svg">
<path d="M7.46927 3.76084C7.74114 3.69104 8.0265 3.69106 8.29838 3.76084C8.62489 3.84473 8.91084 4.06096 9.30423 4.34678L11.7085 6.09287C12.102 6.37871 12.396 6.5846 12.5767 6.86924C12.727 7.1062 12.8159 7.37726 12.8335 7.65732C12.8547 7.99379 12.7367 8.33258 12.5865 8.79502L11.6685 11.6212C11.5182 12.0837 11.4137 12.4278 11.1988 12.6876C11.0199 12.9037 10.7887 13.0707 10.5279 13.1739C10.2144 13.298 9.85593 13.2911 9.36966 13.2911H6.39798C5.91171 13.2911 5.55326 13.298 5.23978 13.1739C4.97891 13.0706 4.74777 12.9038 4.56888 12.6876C4.35394 12.4278 4.25043 12.0838 4.10013 11.6212L3.18119 8.79502C3.03094 8.33262 2.91395 7.99377 2.93509 7.65732C2.95273 7.37728 3.04064 7.10618 3.19095 6.86924C3.37162 6.58457 3.66568 6.37872 4.05912 6.09287L6.46341 4.34678C6.85672 4.06102 7.14283 3.84475 7.46927 3.76084Z" fill="currentColor"/>
</svg>
