<svg width="24" height="24" viewBox="0 0 24 24" fill="none" xmlns="http://www.w3.org/2000/svg">
<g clip-path="url(#clip0_4754_7830)">
<path fill-rule="evenodd" clip-rule="evenodd" d="M11.0049 0.584357C11.6574 0.416834 12.3417 0.416902 12.9942 0.584357C13.778 0.785614 14.4649 1.30449 15.4092 1.99061L21.1788 6.18299C22.123 6.869 22.8291 7.3612 23.2627 8.04432C23.6237 8.61317 23.8357 9.26451 23.878 9.9369C23.9287 10.7444 23.6468 11.5576 23.2862 12.6674L21.0821 19.4506C20.7214 20.5606 20.4719 21.3847 19.9561 22.0082C19.5267 22.5272 18.9721 22.9291 18.3458 23.1771C17.5934 23.4749 16.7326 23.4584 15.5655 23.4584H8.43365C7.26649 23.4584 6.40575 23.475 5.65337 23.1771C5.02712 22.9291 4.47338 22.5272 4.044 22.0082C3.52817 21.3847 3.27871 20.5607 2.91802 19.4506L0.71392 12.6674C0.353299 11.5575 0.0714351 10.7444 0.122123 9.9369C0.164423 9.26456 0.37545 8.61314 0.736381 8.04432C1.16996 7.36115 1.87622 6.86895 2.82037 6.18299L8.59087 1.99061C9.53494 1.3047 10.2213 0.785674 11.0049 0.584357ZM16.5899 9.30018C16.2119 8.89997 15.594 8.89988 15.212 9.30018L10.7002 14.0316L8.79009 12.0306C8.41207 11.6303 7.79426 11.6346 7.41216 12.0306C7.03007 12.4267 7.03007 13.0737 7.41216 13.474L10.0127 16.1996C10.3907 16.5999 11.0086 16.5998 11.3907 16.1996L16.5938 10.7484L16.5899 10.7445C16.972 10.3484 16.9679 9.70052 16.5899 9.30018Z" fill="currentColor"/>
</g>
<defs>
<clipPath id="clip0_4754_7830">
<rect width="24" height="24" fill="white"/>
</clipPath>
</defs>
</svg>
