<svg width="16" height="16" viewBox="0 0 16 16" fill="none" xmlns="http://www.w3.org/2000/svg">
<path d="M14.0293 1.45355C13.4243 0.84849 12.4462 0.84849 11.8412 1.45355L11.0096 2.2824L13.7144 4.98722L14.546 4.15561C15.1511 3.55055 15.1511 2.5725 14.546 1.96744L14.0293 1.45355ZM5.76292 7.5318C5.59439 7.70033 5.46454 7.90755 5.38994 8.13686L4.57214 10.5903C4.49202 10.8279 4.55556 11.0903 4.73238 11.2699C4.9092 11.4495 5.17167 11.5103 5.41204 11.4302L7.86544 10.6124C8.092 10.5378 8.29921 10.4079 8.4705 10.2394L13.0927 5.61439L10.3852 2.90681L5.76292 7.5318ZM3.65211 2.62223C2.18781 2.62223 0.999786 3.81025 0.999786 5.27456V12.3474C0.999786 13.8117 2.18781 14.9998 3.65211 14.9998H10.725C12.1893 14.9998 13.3773 13.8117 13.3773 12.3474V9.6951C13.3773 9.20608 12.9822 8.81099 12.4932 8.81099C12.0042 8.81099 11.6091 9.20608 11.6091 9.6951V12.3474C11.6091 12.8365 11.214 13.2315 10.725 13.2315H3.65211C3.16309 13.2315 2.768 12.8365 2.768 12.3474V5.27456C2.768 4.78554 3.16309 4.39045 3.65211 4.39045H6.30444C6.79346 4.39045 7.18855 3.99536 7.18855 3.50634C7.18855 3.01732 6.79346 2.62223 6.30444 2.62223H3.65211Z" fill="#312A47"/>
</svg>
