<svg width="16" height="16" viewBox="0 0 16 16" fill="none" xmlns="http://www.w3.org/2000/svg">
<path d="M4.90878 1.7108C5.2034 1.97566 5.2272 2.42502 4.96235 2.71963L2.8197 5.10035C2.68876 5.24617 2.50426 5.33247 2.30785 5.33545C2.11144 5.33842 1.92395 5.26402 1.78409 5.12713L0.590752 3.93677C0.313993 3.65704 0.313993 3.2047 0.590752 2.92497C0.867511 2.64523 1.32282 2.64523 1.59958 2.92497L2.25726 3.58264L3.89698 1.76139C4.16183 1.46678 4.61119 1.44297 4.90581 1.70782L4.90878 1.7108ZM4.90878 6.47224C5.2034 6.73709 5.2272 7.18646 4.96235 7.48107L2.8197 9.86179C2.68876 10.0076 2.50426 10.0939 2.30785 10.0969C2.11144 10.0999 1.92395 10.0255 1.78409 9.88857L0.590752 8.69821C0.311017 8.41848 0.311017 7.96614 0.590752 7.68938C0.870486 7.41262 1.32282 7.40965 1.59958 7.68938L2.25726 8.34706L3.89698 6.52581C4.16183 6.23119 4.61119 6.20738 4.90581 6.47224H4.90878ZM7.04845 3.43087C7.04845 2.90414 7.47401 2.47858 8.00074 2.47858H14.6668C15.1935 2.47858 15.619 2.90414 15.619 3.43087C15.619 3.9576 15.1935 4.38316 14.6668 4.38316H8.00074C7.47401 4.38316 7.04845 3.9576 7.04845 3.43087ZM7.04845 8.19231C7.04845 7.66558 7.47401 7.24002 8.00074 7.24002H14.6668C15.1935 7.24002 15.619 7.66558 15.619 8.19231C15.619 8.71904 15.1935 9.1446 14.6668 9.1446H8.00074C7.47401 9.1446 7.04845 8.71904 7.04845 8.19231ZM5.14388 12.9538C5.14388 12.427 5.56943 12.0015 6.09617 12.0015H14.6668C15.1935 12.0015 15.619 12.427 15.619 12.9538C15.619 13.4805 15.1935 13.906 14.6668 13.906H6.09617C5.56943 13.906 5.14388 13.4805 5.14388 12.9538ZM1.81087 11.5253C2.18971 11.5253 2.55304 11.6758 2.82092 11.9437C3.08881 12.2116 3.2393 12.5749 3.2393 12.9538C3.2393 13.3326 3.08881 13.6959 2.82092 13.9638C2.55304 14.2317 2.18971 14.3822 1.81087 14.3822C1.43203 14.3822 1.0687 14.2317 0.800817 13.9638C0.532934 13.6959 0.382439 13.3326 0.382439 12.9538C0.382439 12.5749 0.532934 12.2116 0.800817 11.9437C1.0687 11.6758 1.43203 11.5253 1.81087 11.5253Z" fill="#312A47"/>
</svg>
