<svg width="16" height="16" viewBox="0 0 16 16" fill="none" xmlns="http://www.w3.org/2000/svg">
<path d="M14.5485 5.67155C14.6325 5.89811 14.5617 6.15072 14.3806 6.31217L13.244 7.33822C13.2729 7.55436 13.2886 7.77572 13.2886 7.99967C13.2886 8.22363 13.2729 8.44499 13.244 8.66113L14.3806 9.68717C14.5617 9.84863 14.6325 10.1012 14.5485 10.3278C14.4331 10.6377 14.2939 10.9346 14.1338 11.221L14.0105 11.432C13.8372 11.7184 13.643 11.9893 13.4304 12.2445C13.2755 12.432 13.0183 12.4945 12.7873 12.4215L11.3253 11.9606C10.9736 12.2288 10.5851 12.4528 10.1704 12.6221L9.84227 14.1091C9.78977 14.346 9.60604 14.5335 9.36456 14.5726C9.00233 14.6325 8.62961 14.6637 8.24901 14.6637C7.86842 14.6637 7.49569 14.6325 7.13347 14.5726C6.89199 14.5335 6.70825 14.346 6.65576 14.1091L6.32766 12.6221C5.91294 12.4528 5.52447 12.2288 5.17274 11.9606L3.71335 12.4242C3.48237 12.4971 3.22514 12.432 3.07027 12.2471C2.85766 11.9919 2.66343 11.721 2.49019 11.4346L2.36682 11.2236C2.20671 10.9372 2.0676 10.6403 1.95211 10.3304C1.86811 10.1038 1.93898 9.85124 2.12009 9.68978L3.25663 8.66374C3.22776 8.44499 3.21201 8.22363 3.21201 7.99967C3.21201 7.77572 3.22776 7.55436 3.25663 7.33822L2.12009 6.31217C1.93898 6.15072 1.86811 5.89811 1.95211 5.67155C2.0676 5.36165 2.20671 5.06478 2.36682 4.77832L2.49019 4.56738C2.66343 4.28092 2.85766 4.01009 3.07027 3.75488C3.22514 3.56738 3.48237 3.50488 3.71335 3.5778L5.17537 4.03874C5.52709 3.77051 5.91556 3.54655 6.33028 3.37728L6.65838 1.8903C6.71088 1.65332 6.89461 1.46582 7.1361 1.42676C7.49832 1.36426 7.87104 1.33301 8.25164 1.33301C8.63224 1.33301 9.00496 1.36426 9.36718 1.42415C9.60866 1.46322 9.7924 1.65072 9.8449 1.8877L10.173 3.37467C10.5877 3.54395 10.9762 3.7679 11.3279 4.03613L12.7899 3.5752C13.0209 3.50228 13.2781 3.56738 13.433 3.75228C13.6456 4.00749 13.8398 4.27832 14.0131 4.56478L14.1365 4.77572C14.2966 5.06217 14.4357 5.35905 14.5512 5.66895L14.5485 5.67155ZM8.25164 10.083C8.80855 10.083 9.34266 9.86351 9.73645 9.47281C10.1302 9.08211 10.3515 8.55221 10.3515 7.99967C10.3515 7.44714 10.1302 6.91724 9.73645 6.52654C9.34266 6.13583 8.80855 5.91634 8.25164 5.91634C7.69472 5.91634 7.16062 6.13583 6.76682 6.52654C6.37303 6.91724 6.15179 7.44714 6.15179 7.99967C6.15179 8.55221 6.37303 9.08211 6.76682 9.47281C7.16062 9.86351 7.69472 10.083 8.25164 10.083Z" fill="#312A47"/>
</svg>
