<svg width="16" height="16" viewBox="0 0 16 16" fill="none" xmlns="http://www.w3.org/2000/svg">
<path fill-rule="evenodd" clip-rule="evenodd" d="M10.8696 2C11.1897 2 11.4492 2.2464 11.4492 2.55034L11.4492 12.121L13.0106 10.6384C13.2369 10.4235 13.6039 10.4235 13.8302 10.6384C14.0566 10.8534 14.0566 11.2018 13.8302 11.4167L11.2795 13.8388C11.1708 13.942 11.0233 14 10.8696 14C10.7159 14 10.5685 13.942 10.4598 13.8388L7.90902 11.4167C7.68268 11.2018 7.68268 10.8534 7.90902 10.6384C8.13537 10.4235 8.50234 10.4235 8.72869 10.6384L10.29 12.121L10.29 2.55034C10.29 2.2464 10.5495 2 10.8696 2Z" fill="#312A47"/>
<path fill-rule="evenodd" clip-rule="evenodd" d="M5.13037 2.00001C5.28408 2.00001 5.43151 2.05799 5.5402 2.1612L8.09098 4.58326C8.31732 4.79819 8.31732 5.14664 8.09098 5.36157C7.86463 5.57649 7.49766 5.57649 7.27131 5.36157L5.70996 3.879L5.70996 13.4496C5.70996 13.7536 5.45047 14 5.13037 14C4.81027 14 4.55078 13.7536 4.55078 13.4496L4.55078 3.879L2.98942 5.36157C2.76308 5.57649 2.3961 5.57649 2.16976 5.36157C1.94341 5.14664 1.94341 4.79819 2.16976 4.58326L4.72053 2.1612C4.82923 2.05799 4.97665 2.00001 5.13037 2.00001Z" fill="#312A47"/>
</svg>
