<svg width="24" height="24" viewBox="0 0 24 24" fill="none" xmlns="http://www.w3.org/2000/svg">
<path d="M16.5996 1.01036e-06C17.7032 1.01036e-06 18.5914 -0.000973213 19.3086 0.0576182C20.0373 0.117156 20.6773 0.243267 21.2695 0.544923C22.2103 1.02429 22.9757 1.78966 23.4551 2.73047C23.7567 3.32266 23.8828 3.9627 23.9424 4.69141C24.001 5.40857 24 6.29681 24 7.40039V16.5996C24 17.7032 24.001 18.5914 23.9424 19.3086C23.8828 20.0373 23.7567 20.6773 23.4551 21.2695C22.9757 22.2103 22.2103 22.9757 21.2695 23.4551C20.6773 23.7567 20.0373 23.8828 19.3086 23.9424C18.5914 24.001 17.7032 24 16.5996 24H7.40039C6.29681 24 5.40857 24.001 4.69141 23.9424C3.9627 23.8828 3.32266 23.7567 2.73047 23.4551C1.78966 22.9757 1.02429 22.2103 0.544923 21.2695C0.243266 20.6773 0.117156 20.0373 0.0576182 19.3086C-0.000973225 18.5914 1.01032e-06 17.7032 1.01032e-06 16.5996V7.40039C1.00976e-06 6.29681 -0.000973587 5.40857 0.0576182 4.69141C0.117156 3.9627 0.243265 3.32266 0.544923 2.73047C1.02429 1.78966 1.78966 1.02429 2.73047 0.544923C3.32266 0.243265 3.9627 0.117156 4.69141 0.0576182C5.40857 -0.000973602 6.29681 1.0098e-06 7.40039 1.01036e-06H16.5996ZM16.5898 8.29981C16.2119 7.89983 15.5939 7.89977 15.2119 8.29981L10.7002 13.0322L8.78906 11.0303C8.41102 10.6302 7.79316 10.6343 7.41113 11.0303C7.0294 11.4262 7.02952 12.0733 7.41113 12.4736L10.0127 15.2002C10.3906 15.6003 11.0085 15.6001 11.3906 15.2002L16.5938 9.74805L16.5898 9.74414C16.9719 9.34806 16.9679 8.70015 16.5898 8.29981Z" fill="currentColor"/>
</svg>
