<svg width="16" height="16" viewBox="0 0 16 16" fill="none" xmlns="http://www.w3.org/2000/svg">
<path d="M9.91699 3C10.3764 3 10.7463 3.00003 11.0449 3.02441C11.3485 3.04922 11.6156 3.10185 11.8623 3.22754C12.2542 3.42728 12.5737 3.74576 12.7734 4.1377C12.8991 4.38439 12.9508 4.65153 12.9756 4.95508C13 5.25385 13 5.62431 13 6.08398V9.91699C13 10.3764 13 10.7463 12.9756 11.0449C12.9508 11.3485 12.8991 11.6156 12.7734 11.8623C12.5737 12.2543 12.2543 12.5737 11.8623 12.7734C11.6156 12.8991 11.3485 12.9508 11.0449 12.9756C10.7463 13 10.3764 13 9.91699 13H6.08398C5.62431 13 5.25385 13 4.95508 12.9756C4.65153 12.9508 4.38439 12.8991 4.1377 12.7734C3.74576 12.5737 3.42728 12.2542 3.22754 11.8623C3.10185 11.6156 3.04922 11.3485 3.02441 11.0449C3.00003 10.7463 3 10.3764 3 9.91699V6.08398C3 5.62431 3.00002 5.25385 3.02441 4.95508C3.04922 4.65145 3.10185 4.38444 3.22754 4.1377C3.42725 3.74585 3.74585 3.42725 4.1377 3.22754C4.38444 3.10185 4.65145 3.04922 4.95508 3.02441C5.25385 3.00002 5.62431 3 6.08398 3H9.91699Z" fill="currentColor"/>
</svg>
