<svg width="24" height="24" viewBox="0 0 24 24" fill="none" xmlns="http://www.w3.org/2000/svg">
<path d="M22 7.40039C22 6.26396 21.9996 5.47129 21.9492 4.85449C21.8998 4.24933 21.807 3.90105 21.6729 3.6377C21.3853 3.07347 20.9265 2.61472 20.3623 2.32715C20.099 2.19296 19.7507 2.10023 19.1455 2.05078C18.5287 2.00041 17.736 2 16.5996 2H7.40039C6.26396 2 5.47129 2.00041 4.85449 2.05078C4.24933 2.10023 3.90105 2.19296 3.6377 2.32715C3.07347 2.61472 2.61472 3.07347 2.32715 3.6377C2.19296 3.90105 2.10023 4.24933 2.05078 4.85449C2.00041 5.47129 2 6.26396 2 7.40039V16.5996C2 17.736 2.00041 18.5287 2.05078 19.1455C2.10023 19.7507 2.19296 20.099 2.32715 20.3623C2.61472 20.9265 3.07347 21.3853 3.6377 21.6729C3.90105 21.807 4.24933 21.8998 4.85449 21.9492C5.47129 21.9996 6.26396 22 7.40039 22H16.5996C17.736 22 18.5287 21.9996 19.1455 21.9492C19.7507 21.8998 20.099 21.807 20.3623 21.6729C20.9265 21.3853 21.3853 20.9265 21.6729 20.3623C21.807 20.099 21.8998 19.7507 21.9492 19.1455C21.9996 18.5287 22 17.736 22 16.5996V7.40039ZM24 16.5996C24 17.7032 24.001 18.5914 23.9424 19.3086C23.8828 20.0373 23.7567 20.6773 23.4551 21.2695C22.9757 22.2103 22.2103 22.9757 21.2695 23.4551C20.6773 23.7567 20.0373 23.8828 19.3086 23.9424C18.5914 24.001 17.7032 24 16.5996 24H7.40039C6.29681 24 5.40857 24.001 4.69141 23.9424C3.9627 23.8828 3.32266 23.7567 2.73047 23.4551C1.78966 22.9757 1.02429 22.2103 0.544923 21.2695C0.243265 20.6773 0.117156 20.0373 0.0576182 19.3086C-0.0009735 18.5914 1.01001e-06 17.7032 1.01001e-06 16.5996V7.40039C1.01001e-06 6.29681 -0.0009735 5.40857 0.0576182 4.69141C0.117156 3.9627 0.243265 3.32266 0.544923 2.73047C1.02429 1.78966 1.78966 1.02429 2.73047 0.544923C3.32266 0.243265 3.9627 0.117156 4.69141 0.0576182C5.40857 -0.000973519 6.29681 1.01006e-06 7.40039 1.01006e-06H16.5996C17.7032 1.01006e-06 18.5914 -0.0009735 19.3086 0.0576182C20.0373 0.117156 20.6773 0.243265 21.2695 0.544923C22.2103 1.02429 22.9757 1.78966 23.4551 2.73047C23.7567 3.32266 23.8828 3.9627 23.9424 4.69141C24.001 5.40857 24 6.29681 24 7.40039V16.5996Z" fill="currentColor"/>
</svg>
