<svg width="24" height="24" viewBox="0 0 24 24" fill="none" xmlns="http://www.w3.org/2000/svg">
<g clip-path="url(#clip0_4754_7819)">
<path d="M10.203 1.90035C10.934 0.404312 13.0658 0.404307 13.7968 1.90035L16.3173 7.05758L22.0009 7.86129C23.6496 8.09414 24.3092 10.1218 23.1122 11.2793L18.9853 15.2695L19.9784 20.9238C20.2664 22.5637 18.5409 23.8168 17.0702 23.0361L11.9999 20.3447L6.92959 23.0361C5.45892 23.8168 3.73342 22.5637 4.02139 20.9238L5.01455 15.2695L0.887597 11.2793C-0.309352 10.1218 0.350231 8.09415 1.99892 7.86129L7.68252 7.05758L10.203 1.90035ZM9.47939 7.93551C9.18799 8.53193 8.62004 8.94511 7.96279 9.03805L2.27822 9.84078L6.40517 13.832C6.88226 14.2934 7.09899 14.9615 6.98428 15.6152L5.99111 21.2695L11.0624 18.5781C11.6487 18.2669 12.3511 18.2669 12.9374 18.5781L18.0087 21.2695L17.0155 15.6152C16.9008 14.9615 17.1175 14.2934 17.5946 13.832L21.7216 9.84078L16.037 9.03805C15.3798 8.94511 14.8118 8.53193 14.5204 7.93551L11.9999 2.77828L9.47939 7.93551Z" fill="currentColor"/>
</g>
<defs>
<clipPath id="clip0_4754_7819">
<rect width="24" height="24" fill="white"/>
</clipPath>
</defs>
</svg>
