<svg width="16" height="16" viewBox="0 0 16 16" fill="none" xmlns="http://www.w3.org/2000/svg">
<path d="M6.9746 4.02899C7.2792 3.40573 8.16811 3.40567 8.47265 4.02899L9.4248 5.97919C9.48551 6.10348 9.60424 6.18933 9.7412 6.20868L11.8906 6.51239C12.5775 6.6094 12.852 7.45391 12.3535 7.93622L10.793 9.44599C10.6938 9.54209 10.649 9.68102 10.6728 9.81708L11.0478 11.9548C11.1678 12.6381 10.4487 13.1608 9.83593 12.8356L7.91894 11.8171C7.79688 11.7524 7.65037 11.7524 7.52831 11.8171L5.61034 12.8356C4.99765 13.1604 4.27943 12.6379 4.39941 11.9548L4.77441 9.81708C4.79825 9.68101 4.75352 9.54209 4.65429 9.44599L3.09374 7.93622C2.59509 7.45396 2.86976 6.60948 3.55663 6.51239L5.70605 6.20868C5.8428 6.18927 5.96077 6.10326 6.02148 5.97919L6.9746 4.02899Z" fill="currentColor"/>
</svg>
