<svg width="24" height="24" viewBox="0 0 24 24" fill="none" xmlns="http://www.w3.org/2000/svg">
<g clip-path="url(#clip0_4754_7809)">
<path fill-rule="evenodd" clip-rule="evenodd" d="M10.2037 1.89964C10.9349 0.404383 13.0665 0.404059 13.7974 1.89964L16.0836 6.58128C16.2293 6.87958 16.5136 7.08564 16.8423 7.13206L22.0015 7.86058C23.6498 8.09359 24.3082 10.1211 23.1119 11.2785L19.3668 14.9016C19.1284 15.1323 19.0204 15.4665 19.0777 15.7932L19.9781 20.9231C20.2661 22.5629 18.5415 23.8168 17.0709 23.0364L12.4693 20.593C12.1761 20.4373 11.8241 20.4373 11.5308 20.593L6.92926 23.0364C5.45867 23.8166 3.73405 22.5629 4.02203 20.9231L4.9234 15.7932C4.98082 15.4664 4.8718 15.1324 4.63336 14.9016L0.888243 11.2785C-0.308548 10.1211 0.350103 8.09359 1.99859 7.86058L7.1568 7.13206C7.48547 7.08565 7.76985 6.8795 7.91559 6.58128L10.2037 1.89964ZM16.5904 9.30003C16.2125 8.89981 15.5946 8.90004 15.2125 9.30003L10.6998 14.0325L8.78961 12.0305C8.41158 11.6302 7.79378 11.6344 7.41168 12.0305C7.02972 12.4265 7.02974 13.0735 7.41168 13.4739L10.0132 16.1994C10.3913 16.5998 11.0091 16.5998 11.3912 16.1994L16.5943 10.7483L16.5904 10.7444C16.9724 10.3483 16.9684 9.70036 16.5904 9.30003Z" fill="currentColor"/>
</g>
<defs>
<clipPath id="clip0_4754_7809">
<rect width="24" height="24" fill="white"/>
</clipPath>
</defs>
</svg>
