<svg width="24" height="24" viewBox="0 0 24 24" fill="none" xmlns="http://www.w3.org/2000/svg">
<path d="M10.7755 1.29291C11.5549 0.944357 12.4454 0.944357 13.2247 1.29291C13.7759 1.53946 14.1678 1.98942 14.4992 2.46283C14.8338 2.94101 15.2012 3.58664 15.6466 4.36615L22.1329 15.7158C22.5722 16.4845 22.9365 17.1212 23.1759 17.6464C23.4133 18.1672 23.6007 18.7279 23.5363 19.3232C23.4449 20.1665 23.0005 20.932 22.3136 21.4296C21.8288 21.7807 21.2497 21.8959 20.6798 21.9482C20.105 22.0009 19.371 21.9999 18.4855 21.9999H5.51478C4.62921 21.9999 3.89526 22.0009 3.32044 21.9482C2.7506 21.8959 2.17145 21.7807 1.68665 21.4296C0.999745 20.932 0.555393 20.1665 0.463997 19.3232C0.399557 18.7279 0.586965 18.1672 0.824349 17.6464C1.06377 17.1212 1.42802 16.4845 1.86732 15.7158L8.35365 4.36615C8.79908 3.58664 9.16645 2.94101 9.50111 2.46283C9.83243 1.98942 10.2244 1.53946 10.7755 1.29291ZM12.4083 3.1181C12.1486 3.00197 11.8517 3.00197 11.5919 3.1181C11.5472 3.13812 11.4126 3.21951 11.1398 3.60931C10.8702 3.99446 10.555 4.5445 10.09 5.35834L3.60462 16.7079C3.14565 17.5112 2.83602 18.0545 2.64368 18.4765C2.44968 18.9022 2.44697 19.0578 2.45228 19.1074C2.4827 19.3884 2.63067 19.6436 2.8595 19.8095C2.89969 19.8386 3.03637 19.9142 3.50306 19.957C3.96484 19.9993 4.58982 19.9999 5.51478 19.9999H18.4855C19.4104 19.9999 20.0354 19.9993 20.4972 19.957C20.9639 19.9142 21.1006 19.8386 21.1408 19.8095C21.3696 19.6436 21.5176 19.3884 21.548 19.1074C21.5533 19.0578 21.5506 18.9022 21.3566 18.4765C21.1642 18.0545 20.8546 17.5112 20.3956 16.7079L13.9103 5.35834C13.4452 4.5445 13.13 3.99446 12.8605 3.60931C12.5877 3.21951 12.4531 3.13812 12.4083 3.1181Z" fill="currentColor"/>
</svg>
