<svg width="16" height="16" viewBox="0 0 16 16" fill="none" xmlns="http://www.w3.org/2000/svg">
<path d="M7.03899 4.22418C7.36376 4.07894 7.73573 4.0789 8.06048 4.22418C8.28999 4.32693 8.45274 4.51528 8.59075 4.71246C8.73015 4.91168 8.88374 5.18076 9.06927 5.50543L11.7714 10.2349C11.9543 10.555 12.1063 10.8199 12.206 11.0386C12.3048 11.2555 12.3831 11.489 12.3564 11.7369C12.3183 12.0883 12.1328 12.4074 11.8466 12.6148C11.6446 12.761 11.4033 12.8089 11.1659 12.8306C10.9265 12.8526 10.6207 12.8521 10.2519 12.8521H4.84759C4.4788 12.8521 4.17297 12.8526 3.93352 12.8306C3.69607 12.8088 3.45389 12.7611 3.25188 12.6148C2.96583 12.4074 2.78115 12.0881 2.74309 11.7369C2.71633 11.489 2.79463 11.2555 2.89349 11.0386C2.99321 10.8199 3.14516 10.555 3.32806 10.2349L6.0302 5.50543C6.21577 5.18068 6.3693 4.9117 6.50872 4.71246C6.64674 4.51526 6.80944 4.32693 7.03899 4.22418Z" fill="currentColor"/>
</svg>
