<svg width="24" height="24" viewBox="0 0 24 24" fill="none" xmlns="http://www.w3.org/2000/svg">
<path fill-rule="evenodd" clip-rule="evenodd" d="M10.7755 1.29215C11.5548 0.94362 12.4463 0.943645 13.2257 1.29215C13.7764 1.53866 14.1679 1.98896 14.4991 2.46207C14.8337 2.94015 15.2012 3.58607 15.6466 4.36539L22.1329 15.716C22.5721 16.4845 22.9365 17.1216 23.1759 17.6466C23.4131 18.1673 23.6005 18.7274 23.5362 19.3224C23.4449 20.1658 23.0005 20.9312 22.3135 21.4289C21.8287 21.78 21.2496 21.8951 20.6798 21.9474C20.1051 22.0001 19.3716 21.9992 18.4864 21.9992H5.51472C4.62923 21.9992 3.89516 22.0001 3.32039 21.9474C2.75059 21.8951 2.17133 21.78 1.6866 21.4289C0.999865 20.9312 0.555278 20.1656 0.46394 19.3224C0.399669 18.7274 0.587022 18.1672 0.824292 17.6466C1.06366 17.1215 1.42805 16.4846 1.86726 15.716L8.35359 4.36539C8.79898 3.58596 9.16642 2.94021 9.50105 2.46207C9.83234 1.98875 10.2244 1.53867 10.7755 1.29215ZM16.5899 10.3C16.2119 9.89985 15.594 9.89971 15.212 10.3L10.7003 15.0314L8.79011 13.0304C8.4121 12.6301 7.79428 12.6344 7.41218 13.0304C7.03009 13.4265 7.03009 14.0734 7.41218 14.4738L10.0128 17.1994C10.3908 17.5997 11.0096 17.5997 11.3917 17.1994L16.5938 11.7482L16.5899 11.7443C16.972 11.3482 16.9679 10.7003 16.5899 10.3Z" fill="currentColor"/>
</svg>
