<svg width="16" height="16" viewBox="0 0 16 16" fill="none" xmlns="http://www.w3.org/2000/svg">
<path d="M5.22488 0.553125L4.99988 1H1.99988C1.44675 1 0.999878 1.44687 0.999878 2C0.999878 2.55313 1.44675 3 1.99988 3H13.9999C14.553 3 14.9999 2.55313 14.9999 2C14.9999 1.44687 14.553 1 13.9999 1H10.9999L10.7749 0.553125C10.6061 0.2125 10.2593 0 9.88113 0H6.11863C5.7405 0 5.39363 0.2125 5.22488 0.553125ZM13.9999 4H1.99988L2.66238 14.5938C2.71238 15.3844 3.36863 16 4.15925 16H11.8405C12.6311 16 13.2874 15.3844 13.3374 14.5938L13.9999 4Z" fill="#312A47"/>
</svg>
